<svg width="75" height="35" viewBox="0 0 75 35" fill="none" xmlns="http://www.w3.org/2000/svg">
<mask id="mask0_42_6727" style="mask-type:luminance" maskUnits="userSpaceOnUse" x="27" y="0" width="36" height="35">
<path d="M61.1067 17.472H59.9667C59.9667 21.6627 58.272 25.4454 55.5267 28.1934C52.7787 30.9387 48.996 32.6333 44.8054 32.6333C40.616 32.6333 36.832 30.9387 34.0854 28.1934C31.34 25.4454 29.644 21.6627 29.644 17.472C29.644 13.2813 31.34 9.49869 34.0854 6.75203C36.832 4.00536 40.616 2.31202 44.8054 2.31068C48.996 2.31202 52.7787 4.00536 55.5267 6.75203C58.272 9.49869 59.9667 13.2813 59.9667 17.472H61.1067H62.2454C62.244 7.84001 54.4374 0.0333405 44.8054 0.0333405C35.1734 0.0333405 27.3667 7.84001 27.3667 17.472C27.3667 27.104 35.1734 34.9107 44.8054 34.912C54.4374 34.9107 62.244 27.104 62.2454 17.472H61.1067Z" fill="white"/>
</mask>
<g mask="url(#mask0_42_6727)">
<path d="M61.1067 17.472H59.9667C59.9667 21.6627 58.272 25.4454 55.5267 28.1934C52.7787 30.9387 48.996 32.6333 44.8054 32.6333C40.616 32.6333 36.832 30.9387 34.0854 28.1934C31.34 25.4454 29.644 21.6627 29.644 17.472C29.644 13.2813 31.34 9.49869 34.0854 6.75203C36.832 4.00536 40.616 2.31202 44.8054 2.31068C48.996 2.31202 52.7787 4.00536 55.5267 6.75203C58.272 9.49869 59.9667 13.2813 59.9667 17.472H61.1067H62.2454C62.244 7.84001 54.4374 0.0333405 44.8054 0.0333405C35.1734 0.0333405 27.3667 7.84001 27.3667 17.472C27.3667 27.104 35.1734 34.9107 44.8054 34.912C54.4374 34.9107 62.244 27.104 62.2454 17.472H61.1067Z" fill="url(#paint0_linear_42_6727)"/>
</g>
<mask id="mask1_42_6727" style="mask-type:luminance" maskUnits="userSpaceOnUse" x="47" y="4" width="28" height="27">
<path d="M73.2067 17.4721H72.068C72.068 20.5027 70.8427 23.236 68.8574 25.2227C66.8694 27.2094 64.1374 28.4334 61.1067 28.4334C58.076 28.4334 55.3427 27.2094 53.3547 25.2227C51.3694 23.236 50.144 20.5027 50.144 17.4721C50.144 14.4414 51.3694 11.7081 53.3547 9.72141C55.3427 7.73608 58.076 6.51073 61.1067 6.51073C64.1374 6.51073 66.8707 7.73608 68.8574 9.72141C70.8427 11.7081 72.068 14.4414 72.068 17.4721H73.2067H74.3454C74.3454 10.1601 68.4187 4.23339 61.1067 4.23339C53.7934 4.23339 47.8667 10.1601 47.8667 17.4721C47.8667 24.7841 53.7934 30.7107 61.1067 30.712C68.4187 30.7107 74.3454 24.7841 74.3454 17.4721H73.2067Z" fill="white"/>
</mask>
<g mask="url(#mask1_42_6727)">
<path d="M73.2067 17.4721H72.068C72.068 20.5027 70.8427 23.236 68.8574 25.2227C66.8694 27.2094 64.1374 28.4334 61.1067 28.4334C58.076 28.4334 55.3427 27.2094 53.3547 25.2227C51.3694 23.236 50.144 20.5027 50.144 17.4721C50.144 14.4414 51.3694 11.7081 53.3547 9.72141C55.3427 7.73608 58.076 6.51073 61.1067 6.51073C64.1374 6.51073 66.8707 7.73608 68.8574 9.72141C70.8427 11.7081 72.068 14.4414 72.068 17.4721H73.2067H74.3454C74.3454 10.1601 68.4187 4.23339 61.1067 4.23339C53.7934 4.23339 47.8667 10.1601 47.8667 17.4721C47.8667 24.7841 53.7934 30.7107 61.1067 30.712C68.4187 30.7107 74.3454 24.7841 74.3454 17.4721H73.2067Z" fill="url(#paint1_linear_42_6727)"/>
</g>
<mask id="mask2_42_6727" style="mask-type:luminance" maskUnits="userSpaceOnUse" x="17" y="6" width="23" height="23">
<path d="M37.9014 17.472H36.7627C36.7614 19.756 35.84 21.8134 34.344 23.3107C32.8467 24.8067 30.7894 25.728 28.5054 25.728C26.2214 25.728 24.164 24.8067 22.6667 23.3107C21.1707 21.8134 20.2494 19.756 20.248 17.472C20.2494 15.188 21.1707 13.1307 22.6667 11.6333C24.1654 10.1373 26.2214 9.21599 28.5054 9.21466C30.7894 9.21599 32.8467 10.1373 34.344 11.6333C35.84 13.1307 36.7614 15.188 36.7627 17.472H37.9014H39.04C39.0387 11.6534 34.324 6.93865 28.5054 6.93731C22.6867 6.93865 17.9707 11.6534 17.9707 17.472C17.9707 23.2907 22.6867 28.0053 28.5054 28.0067C34.324 28.0053 39.0387 23.2907 39.04 17.472H37.9014Z" fill="white"/>
</mask>
<g mask="url(#mask2_42_6727)">
<path d="M37.9014 17.472H36.7627C36.7614 19.756 35.84 21.8134 34.344 23.3107C32.8467 24.8067 30.7894 25.728 28.5054 25.728C26.2214 25.728 24.164 24.8067 22.6667 23.3107C21.1707 21.8134 20.2494 19.756 20.248 17.472C20.2494 15.188 21.1707 13.1307 22.6667 11.6333C24.1654 10.1373 26.2214 9.21599 28.5054 9.21466C30.7894 9.21599 32.8467 10.1373 34.344 11.6333C35.84 13.1307 36.7614 15.188 36.7627 17.472H37.9014H39.04C39.0387 11.6534 34.324 6.93865 28.5054 6.93731C22.6867 6.93865 17.9707 11.6534 17.9707 17.472C17.9707 23.2907 22.6867 28.0053 28.5054 28.0067C34.324 28.0053 39.0387 23.2907 39.04 17.472H37.9014Z" fill="url(#paint2_linear_42_6727)"/>
</g>
<mask id="mask3_42_6727" style="mask-type:luminance" maskUnits="userSpaceOnUse" x="0" y="9" width="16" height="17">
<path d="M14.4306 17.472H13.2919C13.2919 18.972 12.6879 20.32 11.7053 21.304C10.7213 22.2867 9.37326 22.8907 7.87326 22.8907C6.37326 22.8907 5.02526 22.2867 4.04126 21.304C3.05859 20.32 2.45459 18.972 2.45459 17.472C2.45459 15.972 3.05859 14.624 4.04126 13.64C5.02526 12.6573 6.37326 12.0534 7.87326 12.0534C9.37326 12.0534 10.7213 12.6573 11.7053 13.64C12.6879 14.624 13.2919 15.972 13.2919 17.472H14.4306H15.5693C15.5693 13.2214 12.1253 9.77605 7.87326 9.77471C3.62126 9.77605 0.177246 13.2214 0.177246 17.472C0.177246 21.7227 3.62126 25.168 7.87326 25.1694C12.1253 25.168 15.5693 21.7227 15.5693 17.472H14.4306Z" fill="white"/>
</mask>
<g mask="url(#mask3_42_6727)">
<path d="M14.4306 17.472H13.2919C13.2919 18.972 12.6879 20.32 11.7053 21.304C10.7213 22.2867 9.37326 22.8907 7.87326 22.8907C6.37326 22.8907 5.02526 22.2867 4.04126 21.304C3.05859 20.32 2.45459 18.972 2.45459 17.472C2.45459 15.972 3.05859 14.624 4.04126 13.64C5.02526 12.6573 6.37326 12.0534 7.87326 12.0534C9.37326 12.0534 10.7213 12.6573 11.7053 13.64C12.6879 14.624 13.2919 15.972 13.2919 17.472H14.4306H15.5693C15.5693 13.2214 12.1253 9.77605 7.87326 9.77471C3.62126 9.77605 0.177246 13.2214 0.177246 17.472C0.177246 21.7227 3.62126 25.168 7.87326 25.1694C12.1253 25.168 15.5693 21.7227 15.5693 17.472H14.4306Z" fill="url(#paint3_linear_42_6727)"/>
</g>
<defs>
<linearGradient id="paint0_linear_42_6727" x1="27.3667" y1="17.472" x2="62.2452" y2="17.472" gradientUnits="userSpaceOnUse">
<stop stop-color="#F4B90C"/>
<stop offset="0.00529101" stop-color="#F4B90C"/>
<stop offset="1" stop-color="#F36717"/>
</linearGradient>
<linearGradient id="paint1_linear_42_6727" x1="47.8667" y1="17.472" x2="74.3459" y2="17.472" gradientUnits="userSpaceOnUse">
<stop stop-color="#F4B90C"/>
<stop offset="0.00529101" stop-color="#F4B90C"/>
<stop offset="1" stop-color="#F36717"/>
</linearGradient>
<linearGradient id="paint2_linear_42_6727" x1="17.9707" y1="17.472" x2="39.0402" y2="17.472" gradientUnits="userSpaceOnUse">
<stop stop-color="#F4B90C"/>
<stop offset="0.00529101" stop-color="#F4B90C"/>
<stop offset="1" stop-color="#F36717"/>
</linearGradient>
<linearGradient id="paint3_linear_42_6727" x1="0.175913" y1="17.472" x2="15.5694" y2="17.472" gradientUnits="userSpaceOnUse">
<stop stop-color="#F4B90C"/>
<stop offset="0.00529101" stop-color="#F4B90C"/>
<stop offset="1" stop-color="#F36717"/>
</linearGradient>
</defs>
</svg>
