<svg width="109" height="68" viewBox="0 0 109 68" fill="none" xmlns="http://www.w3.org/2000/svg">
<path d="M1.17119 48.4237C1.17119 47.5098 1.37727 46.6899 1.78943 45.9642C2.2016 45.2294 2.7616 44.656 3.46945 44.2438C4.18626 43.8316 4.97922 43.6256 5.84835 43.6256C6.8698 43.6256 7.76133 43.872 8.52294 44.3648C9.28455 44.8576 9.84007 45.5565 10.1895 46.4614H8.72454C8.4647 45.897 8.08838 45.4624 7.59557 45.1577C7.11173 44.8531 6.52932 44.7008 5.84835 44.7008C5.19427 44.7008 4.60738 44.8531 4.0877 45.1577C3.56801 45.4624 3.16033 45.897 2.86464 46.4614C2.56896 47.017 2.42112 47.6711 2.42112 48.4237C2.42112 49.1674 2.56896 49.8215 2.86464 50.386C3.16033 50.9415 3.56801 51.3716 4.0877 51.6763C4.60738 51.9809 5.19427 52.1332 5.84835 52.1332C6.52932 52.1332 7.11173 51.9854 7.59557 51.6897C8.08838 51.3851 8.4647 50.9505 8.72454 50.386H10.1895C9.84007 51.282 9.28455 51.9764 8.52294 52.4692C7.76133 52.9531 6.8698 53.195 5.84835 53.195C4.97922 53.195 4.18626 52.9934 3.46945 52.5902C2.7616 52.178 2.2016 51.6091 1.78943 50.8833C1.37727 50.1575 1.17119 49.3377 1.17119 48.4237ZM16.2572 53.2085C15.3881 53.2085 14.5951 53.0069 13.8783 52.6036C13.1615 52.1915 12.5925 51.6225 12.1714 50.8967C11.7592 50.162 11.5532 49.3377 11.5532 48.4237C11.5532 47.5098 11.7592 46.6899 12.1714 45.9642C12.5925 45.2294 13.1615 44.6605 13.8783 44.2572C14.5951 43.8451 15.3881 43.639 16.2572 43.639C17.1353 43.639 17.9327 43.8451 18.6496 44.2572C19.3664 44.6605 19.9308 45.2249 20.343 45.9507C20.7552 46.6765 20.9613 47.5008 20.9613 48.4237C20.9613 49.3466 20.7552 50.171 20.343 50.8967C19.9308 51.6225 19.3664 52.1915 18.6496 52.6036C17.9327 53.0069 17.1353 53.2085 16.2572 53.2085ZM16.2572 52.1467C16.9113 52.1467 17.4982 51.9944 18.0179 51.6897C18.5465 51.3851 18.9587 50.9505 19.2544 50.386C19.559 49.8215 19.7113 49.1674 19.7113 48.4237C19.7113 47.6711 19.559 47.017 19.2544 46.4614C18.9587 45.897 18.551 45.4624 18.0313 45.1577C17.5116 44.8531 16.9203 44.7008 16.2572 44.7008C15.5942 44.7008 15.0028 44.8531 14.4831 45.1577C13.9634 45.4624 13.5513 45.897 13.2466 46.4614C12.9509 47.017 12.8031 47.6711 12.8031 48.4237C12.8031 49.1674 12.9509 49.8215 13.2466 50.386C13.5513 50.9505 13.9634 51.3851 14.4831 51.6897C15.0118 51.9944 15.6031 52.1467 16.2572 52.1467ZM32.078 43.8137V53.1144H30.855V46.1792L27.7637 53.1144H26.9036L23.7989 46.1658V53.1144H22.5759V43.8137H23.893L27.3337 51.5015L30.7743 43.8137H32.078ZM40.4153 46.4883C40.4153 47.2679 40.1465 47.9175 39.6089 48.4372C39.0803 48.9479 38.2694 49.2033 37.1762 49.2033H35.3753V53.1144H34.1522V43.7465H37.1762C38.2335 43.7465 39.0355 44.0019 39.582 44.5126C40.1376 45.0233 40.4153 45.6819 40.4153 46.4883ZM37.1762 48.1952C37.8572 48.1952 38.359 48.0474 38.6815 47.7517C39.0041 47.456 39.1654 47.0349 39.1654 46.4883C39.1654 45.3325 38.5023 44.7545 37.1762 44.7545H35.3753V48.1952H37.1762ZM47.4728 51.0311H43.387L42.6343 53.1144H41.3441L44.731 43.8003H46.1422L49.5157 53.1144H48.2254L47.4728 51.0311ZM47.1233 50.0366L45.4299 45.3056L43.7364 50.0366H47.1233ZM58.357 53.1144H57.1339L52.2148 45.655V53.1144H50.9918V43.7331H52.2148L57.1339 51.179V43.7331H58.357V53.1144ZM67.0006 43.7465L63.9497 49.5796V53.1144H62.7267V49.5796L59.6623 43.7465H61.0198L63.3315 48.4909L65.6432 43.7465H67.0006ZM79.239 53.1144H78.016L73.0969 45.655V53.1144H71.8738V43.7331H73.0969L78.016 51.179V43.7331H79.239V53.1144ZM86.8613 51.0311H82.7755L82.0228 53.1144H80.7326L84.1195 43.8003H85.5307L88.9042 53.1144H87.6139L86.8613 51.0311ZM86.5118 50.0366L84.8184 45.3056L83.1249 50.0366H86.5118ZM99.8824 43.8137V53.1144H98.6594V46.1792L95.5682 53.1144H94.708L91.6033 46.1658V53.1144H90.3803V43.8137H91.6974L95.1381 51.5015L98.5787 43.8137H99.8824ZM103.18 44.7411V47.8727H106.593V48.8807H103.18V52.1064H106.997V53.1144H101.957V43.7331H106.997V44.7411H103.18Z" fill="#353435"/>
<path d="M16.7705 61.7861C16.7705 61.1768 16.9079 60.6302 17.1827 60.1464C17.4575 59.6566 17.8308 59.2743 18.3027 58.9995C18.7806 58.7247 19.3092 58.5873 19.8886 58.5873C20.5696 58.5873 21.164 58.7516 21.6717 59.0801C22.1794 59.4087 22.5498 59.8746 22.7828 60.4779H21.8061C21.6329 60.1016 21.382 59.8119 21.0535 59.6088C20.7309 59.4057 20.3426 59.3041 19.8886 59.3041C19.4526 59.3041 19.0613 59.4057 18.7149 59.6088C18.3684 59.8119 18.0966 60.1016 17.8995 60.4779C17.7024 60.8483 17.6038 61.2843 17.6038 61.7861C17.6038 62.2819 17.7024 62.718 17.8995 63.0943C18.0966 63.4646 18.3684 63.7514 18.7149 63.9545C19.0613 64.1576 19.4526 64.2591 19.8886 64.2591C20.3426 64.2591 20.7309 64.1606 21.0535 63.9634C21.382 63.7603 21.6329 63.4706 21.8061 63.0943H22.7828C22.5498 63.6916 22.1794 64.1546 21.6717 64.4831C21.164 64.8057 20.5696 64.967 19.8886 64.967C19.3092 64.967 18.7806 64.8326 18.3027 64.5638C17.8308 64.289 17.4575 63.9097 17.1827 63.4258C16.9079 62.942 16.7705 62.3954 16.7705 61.7861ZM26.8279 64.9759C26.2485 64.9759 25.7198 64.8415 25.2419 64.5727C24.7641 64.2979 24.3848 63.9186 24.104 63.4348C23.8292 62.945 23.6919 62.3954 23.6919 61.7861C23.6919 61.1768 23.8292 60.6302 24.104 60.1464C24.3848 59.6566 24.7641 59.2773 25.2419 59.0085C25.7198 58.7337 26.2485 58.5963 26.8279 58.5963C27.4133 58.5963 27.9449 58.7337 28.4228 59.0085C28.9006 59.2773 29.277 59.6536 29.5517 60.1374C29.8265 60.6213 29.9639 61.1708 29.9639 61.7861C29.9639 62.4014 29.8265 62.9509 29.5517 63.4348C29.277 63.9186 28.9006 64.2979 28.4228 64.5727C27.9449 64.8415 27.4133 64.9759 26.8279 64.9759ZM26.8279 64.2681C27.2639 64.2681 27.6552 64.1665 28.0017 63.9634C28.3541 63.7603 28.6289 63.4706 28.826 63.0943C29.0291 62.718 29.1306 62.2819 29.1306 61.7861C29.1306 61.2843 29.0291 60.8483 28.826 60.4779C28.6289 60.1016 28.3571 59.8119 28.0106 59.6088C27.6642 59.4057 27.2699 59.3041 26.8279 59.3041C26.3859 59.3041 25.9916 59.4057 25.6452 59.6088C25.2987 59.8119 25.0239 60.1016 24.8208 60.4779C24.6237 60.8483 24.5251 61.2843 24.5251 61.7861C24.5251 62.2819 24.6237 62.718 24.8208 63.0943C25.0239 63.4706 25.2987 63.7603 25.6452 63.9634C25.9976 64.1665 26.3918 64.2681 26.8279 64.2681ZM37.3751 58.7128V64.9132H36.5597V60.2898L34.4989 64.9132H33.9255L31.8557 60.2808V64.9132H31.0403V58.7128H31.9184L34.2122 63.838L36.506 58.7128H37.3751ZM42.9333 60.4958C42.9333 61.0155 42.7541 61.4486 42.3957 61.7951C42.0432 62.1356 41.5027 62.3058 40.7739 62.3058H39.5733V64.9132H38.7579V58.668H40.7739C41.4788 58.668 42.0134 58.8382 42.3778 59.1787C42.7481 59.5192 42.9333 59.9582 42.9333 60.4958ZM40.7739 61.6338C41.2279 61.6338 41.5624 61.5352 41.7774 61.3381C41.9925 61.141 42.1 60.8602 42.1 60.4958C42.1 59.7253 41.658 59.34 40.7739 59.34H39.5733V61.6338H40.7739ZM47.6382 63.5244H44.9144L44.4126 64.9132H43.5524L45.8104 58.7038H46.7512L49.0002 64.9132H48.14L47.6382 63.5244ZM47.4053 62.8613L46.2763 59.7073L45.1473 62.8613H47.4053ZM54.8944 64.9132H54.079L50.7996 59.9403V64.9132H49.9842V58.659H50.7996L54.079 63.6229V58.659H54.8944V64.9132ZM60.6568 58.668L58.6229 62.5567V64.9132H57.8075V62.5567L55.7646 58.668H56.6696L58.2107 61.8309L59.7519 58.668H60.6568ZM65.8858 64.9759C65.4736 64.9759 65.1033 64.9042 64.7747 64.7609C64.4522 64.6115 64.1983 64.4085 64.0131 64.1516C63.828 63.8888 63.7324 63.5871 63.7264 63.2466H64.5955C64.6254 63.5393 64.7449 63.7872 64.954 63.9903C65.169 64.1874 65.4796 64.286 65.8858 64.286C66.2741 64.286 66.5787 64.1904 66.7997 63.9993C67.0267 63.8021 67.1402 63.5513 67.1402 63.2466C67.1402 63.0077 67.0745 62.8135 66.9431 62.6642C66.8117 62.5149 66.6474 62.4014 66.4503 62.3237C66.2532 62.2461 65.9873 62.1624 65.6528 62.0728C65.2407 61.9653 64.9092 61.8578 64.6583 61.7503C64.4134 61.6427 64.2013 61.4755 64.0221 61.2485C63.8489 61.0155 63.7623 60.7049 63.7623 60.3166C63.7623 59.9762 63.8489 59.6745 64.0221 59.4117C64.1953 59.1488 64.4373 58.9457 64.7479 58.8024C65.0645 58.659 65.4258 58.5873 65.832 58.5873C66.4174 58.5873 66.8953 58.7337 67.2657 59.0264C67.642 59.3191 67.854 59.7073 67.9018 60.1912H67.0058C66.9759 59.9523 66.8505 59.7432 66.6295 59.564C66.4085 59.3788 66.1158 59.2862 65.7514 59.2862C65.4109 59.2862 65.1332 59.3758 64.9181 59.555C64.7031 59.7283 64.5955 59.9732 64.5955 60.2898C64.5955 60.5167 64.6583 60.7019 64.7837 60.8453C64.9151 60.9887 65.0734 61.0992 65.2586 61.1768C65.4497 61.2485 65.7156 61.3321 66.056 61.4277C66.4682 61.5412 66.7997 61.6547 67.0506 61.7682C67.3015 61.8757 67.5165 62.046 67.6957 62.2789C67.8749 62.5059 67.9645 62.8165 67.9645 63.2108C67.9645 63.5154 67.8839 63.8021 67.7226 64.071C67.5613 64.3398 67.3224 64.5578 67.0058 64.725C66.6892 64.8923 66.3159 64.9759 65.8858 64.9759ZM69.9798 64.2502H72.166V64.9132H69.1644V58.668H69.9798V64.2502ZM75.8633 64.9759C75.2839 64.9759 74.7553 64.8415 74.2774 64.5727C73.7995 64.2979 73.4202 63.9186 73.1395 63.4348C72.8647 62.945 72.7273 62.3954 72.7273 61.7861C72.7273 61.1768 72.8647 60.6302 73.1395 60.1464C73.4202 59.6566 73.7995 59.2773 74.2774 59.0085C74.7553 58.7337 75.2839 58.5963 75.8633 58.5963C76.4487 58.5963 76.9804 58.7337 77.4582 59.0085C77.9361 59.2773 78.3124 59.6536 78.5872 60.1374C78.862 60.6213 78.9994 61.1708 78.9994 61.7861C78.9994 62.4014 78.862 62.9509 78.5872 63.4348C78.3124 63.9186 77.9361 64.2979 77.4582 64.5727C76.9804 64.8415 76.4487 64.9759 75.8633 64.9759ZM75.8633 64.2681C76.2994 64.2681 76.6907 64.1665 77.0371 63.9634C77.3895 63.7603 77.6643 63.4706 77.8614 63.0943C78.0645 62.718 78.1661 62.2819 78.1661 61.7861C78.1661 61.2843 78.0645 60.8483 77.8614 60.4779C77.6643 60.1016 77.3925 59.8119 77.0461 59.6088C76.6996 59.4057 76.3054 59.3041 75.8633 59.3041C75.4213 59.3041 75.0271 59.4057 74.6806 59.6088C74.3342 59.8119 74.0594 60.1016 73.8563 60.4779C73.6592 60.8483 73.5606 61.2843 73.5606 61.7861C73.5606 62.2819 73.6592 62.718 73.8563 63.0943C74.0594 63.4706 74.3342 63.7603 74.6806 63.9634C75.033 64.1665 75.4273 64.2681 75.8633 64.2681ZM84.8067 60.4779C84.6335 60.1135 84.3826 59.8328 84.054 59.6357C83.7255 59.4326 83.3432 59.331 82.9072 59.331C82.4711 59.331 82.0769 59.4326 81.7244 59.6357C81.378 59.8328 81.1032 60.1195 80.9001 60.4958C80.703 60.8662 80.6044 61.2963 80.6044 61.7861C80.6044 62.2759 80.703 62.706 80.9001 63.0764C81.1032 63.4467 81.378 63.7335 81.7244 63.9365C82.0769 64.1337 82.4711 64.2322 82.9072 64.2322C83.5164 64.2322 84.0182 64.05 84.4125 63.6857C84.8067 63.3213 85.0367 62.8285 85.1024 62.2072H82.6115V61.5442H85.9715V62.1714C85.9237 62.6851 85.7624 63.157 85.4877 63.5871C85.2129 64.0112 84.8515 64.3487 84.4035 64.5996C83.9555 64.8445 83.4567 64.967 82.9072 64.967C82.3277 64.967 81.7991 64.8326 81.3212 64.5638C80.8434 64.289 80.464 63.9097 80.1833 63.4258C79.9085 62.942 79.7711 62.3954 79.7711 61.7861C79.7711 61.1768 79.9085 60.6302 80.1833 60.1464C80.464 59.6566 80.8434 59.2773 81.3212 59.0085C81.7991 58.7337 82.3277 58.5963 82.9072 58.5963C83.5702 58.5963 84.1556 58.7606 84.6633 59.0891C85.177 59.4176 85.5504 59.8806 85.7833 60.4779H84.8067ZM90.7411 63.5244H88.0173L87.5155 64.9132H86.6553L88.9133 58.7038H89.8541L92.1031 64.9132H91.2429L90.7411 63.5244ZM90.5082 62.8613L89.3792 59.7073L88.2502 62.8613H90.5082ZM97.9973 64.9132H97.1819L93.9025 59.9403V64.9132H93.0871V58.659H93.9025L97.1819 63.6229V58.659H97.9973V64.9132Z" fill="#353435"/>
<mask id="mask0_42_6728" style="mask-type:luminance" maskUnits="userSpaceOnUse" x="41" y="0" width="36" height="35">
<path d="M75.1067 17.472H73.9667C73.9667 21.6627 72.272 25.4454 69.5267 28.1934C66.7787 30.9387 62.996 32.6333 58.8054 32.6333C54.616 32.6333 50.832 30.9387 48.0854 28.1934C45.34 25.4454 43.644 21.6627 43.644 17.472C43.644 13.2813 45.34 9.49869 48.0854 6.75202C50.832 4.00536 54.616 2.31202 58.8054 2.31068C62.996 2.31202 66.7787 4.00536 69.5267 6.75202C72.272 9.49869 73.9667 13.2813 73.9667 17.472H75.1067H76.2454C76.244 7.84001 68.4374 0.0333397 58.8054 0.0333397C49.1734 0.0333397 41.3667 7.84001 41.3667 17.472C41.3667 27.104 49.1734 34.9107 58.8054 34.912C68.4374 34.9107 76.244 27.104 76.2454 17.472H75.1067Z" fill="white"/>
</mask>
<g mask="url(#mask0_42_6728)">
<path d="M75.1067 17.472H73.9667C73.9667 21.6627 72.272 25.4454 69.5267 28.1934C66.7787 30.9387 62.996 32.6333 58.8054 32.6333C54.616 32.6333 50.832 30.9387 48.0854 28.1934C45.34 25.4454 43.644 21.6627 43.644 17.472C43.644 13.2813 45.34 9.49869 48.0854 6.75202C50.832 4.00536 54.616 2.31202 58.8054 2.31068C62.996 2.31202 66.7787 4.00536 69.5267 6.75202C72.272 9.49869 73.9667 13.2813 73.9667 17.472H75.1067H76.2454C76.244 7.84001 68.4374 0.0333397 58.8054 0.0333397C49.1734 0.0333397 41.3667 7.84001 41.3667 17.472C41.3667 27.104 49.1734 34.9107 58.8054 34.912C68.4374 34.9107 76.244 27.104 76.2454 17.472H75.1067Z" fill="url(#paint0_linear_42_6728)"/>
</g>
<mask id="mask1_42_6728" style="mask-type:luminance" maskUnits="userSpaceOnUse" x="61" y="4" width="28" height="27">
<path d="M87.2067 17.4721H86.068C86.068 20.5027 84.8427 23.236 82.8574 25.2227C80.8694 27.2094 78.1374 28.4334 75.1067 28.4334C72.076 28.4334 69.3427 27.2094 67.3547 25.2227C65.3694 23.236 64.144 20.5027 64.144 17.4721C64.144 14.4414 65.3694 11.7081 67.3547 9.72141C69.3427 7.73608 72.076 6.51074 75.1067 6.51074C78.1374 6.51074 80.8707 7.73608 82.8574 9.72141C84.8427 11.7081 86.068 14.4414 86.068 17.4721H87.2067H88.3454C88.3454 10.1601 82.4187 4.23339 75.1067 4.23339C67.7934 4.23339 61.8667 10.1601 61.8667 17.4721C61.8667 24.7841 67.7934 30.7107 75.1067 30.712C82.4187 30.7107 88.3454 24.7841 88.3454 17.4721H87.2067Z" fill="white"/>
</mask>
<g mask="url(#mask1_42_6728)">
<path d="M87.2067 17.4721H86.068C86.068 20.5027 84.8427 23.236 82.8574 25.2227C80.8694 27.2094 78.1374 28.4334 75.1067 28.4334C72.076 28.4334 69.3427 27.2094 67.3547 25.2227C65.3694 23.236 64.144 20.5027 64.144 17.4721C64.144 14.4414 65.3694 11.7081 67.3547 9.72141C69.3427 7.73608 72.076 6.51074 75.1067 6.51074C78.1374 6.51074 80.8707 7.73608 82.8574 9.72141C84.8427 11.7081 86.068 14.4414 86.068 17.4721H87.2067H88.3454C88.3454 10.1601 82.4187 4.23339 75.1067 4.23339C67.7934 4.23339 61.8667 10.1601 61.8667 17.4721C61.8667 24.7841 67.7934 30.7107 75.1067 30.712C82.4187 30.7107 88.3454 24.7841 88.3454 17.4721H87.2067Z" fill="url(#paint1_linear_42_6728)"/>
</g>
<mask id="mask2_42_6728" style="mask-type:luminance" maskUnits="userSpaceOnUse" x="31" y="6" width="23" height="23">
<path d="M51.9014 17.472H50.7627C50.7614 19.756 49.84 21.8134 48.344 23.3107C46.8467 24.8067 44.7894 25.728 42.5054 25.728C40.2214 25.728 38.164 24.8067 36.6667 23.3107C35.1707 21.8134 34.2494 19.756 34.248 17.472C34.2494 15.188 35.1707 13.1307 36.6667 11.6333C38.1654 10.1373 40.2214 9.21599 42.5054 9.21466C44.7894 9.21599 46.8467 10.1373 48.344 11.6333C49.84 13.1307 50.7614 15.188 50.7627 17.472H51.9014H53.04C53.0387 11.6533 48.324 6.93865 42.5054 6.93732C36.6867 6.93865 31.9707 11.6533 31.9707 17.472C31.9707 23.2907 36.6867 28.0053 42.5054 28.0067C48.324 28.0053 53.0387 23.2907 53.04 17.472H51.9014Z" fill="white"/>
</mask>
<g mask="url(#mask2_42_6728)">
<path d="M51.9014 17.472H50.7627C50.7614 19.756 49.84 21.8134 48.344 23.3107C46.8467 24.8067 44.7894 25.728 42.5054 25.728C40.2214 25.728 38.164 24.8067 36.6667 23.3107C35.1707 21.8134 34.2494 19.756 34.248 17.472C34.2494 15.188 35.1707 13.1307 36.6667 11.6333C38.1654 10.1373 40.2214 9.21599 42.5054 9.21466C44.7894 9.21599 46.8467 10.1373 48.344 11.6333C49.84 13.1307 50.7614 15.188 50.7627 17.472H51.9014H53.04C53.0387 11.6533 48.324 6.93865 42.5054 6.93732C36.6867 6.93865 31.9707 11.6533 31.9707 17.472C31.9707 23.2907 36.6867 28.0053 42.5054 28.0067C48.324 28.0053 53.0387 23.2907 53.04 17.472H51.9014Z" fill="url(#paint2_linear_42_6728)"/>
</g>
<mask id="mask3_42_6728" style="mask-type:luminance" maskUnits="userSpaceOnUse" x="14" y="9" width="16" height="17">
<path d="M28.4306 17.472H27.2919C27.2919 18.972 26.6879 20.32 25.7053 21.304C24.7213 22.2867 23.3733 22.8907 21.8733 22.8907C20.3733 22.8907 19.0253 22.2867 18.0413 21.304C17.0586 20.32 16.4546 18.972 16.4546 17.472C16.4546 15.972 17.0586 14.624 18.0413 13.64C19.0253 12.6573 20.3733 12.0534 21.8733 12.0534C23.3733 12.0534 24.7213 12.6573 25.7053 13.64C26.6879 14.624 27.2919 15.972 27.2919 17.472H28.4306H29.5693C29.5693 13.2214 26.1253 9.77605 21.8733 9.77471C17.6213 9.77605 14.1772 13.2214 14.1772 17.472C14.1772 21.7227 17.6213 25.168 21.8733 25.1694C26.1253 25.168 29.5693 21.7227 29.5693 17.472H28.4306Z" fill="white"/>
</mask>
<g mask="url(#mask3_42_6728)">
<path d="M28.4306 17.472H27.2919C27.2919 18.972 26.6879 20.32 25.7053 21.304C24.7213 22.2867 23.3733 22.8907 21.8733 22.8907C20.3733 22.8907 19.0253 22.2867 18.0413 21.304C17.0586 20.32 16.4546 18.972 16.4546 17.472C16.4546 15.972 17.0586 14.624 18.0413 13.64C19.0253 12.6573 20.3733 12.0534 21.8733 12.0534C23.3733 12.0534 24.7213 12.6573 25.7053 13.64C26.6879 14.624 27.2919 15.972 27.2919 17.472H28.4306H29.5693C29.5693 13.2214 26.1253 9.77605 21.8733 9.77471C17.6213 9.77605 14.1772 13.2214 14.1772 17.472C14.1772 21.7227 17.6213 25.168 21.8733 25.1694C26.1253 25.168 29.5693 21.7227 29.5693 17.472H28.4306Z" fill="url(#paint3_linear_42_6728)"/>
</g>
<defs>
<linearGradient id="paint0_linear_42_6728" x1="41.3667" y1="17.472" x2="76.2452" y2="17.472" gradientUnits="userSpaceOnUse">
<stop stop-color="#F4B90C"/>
<stop offset="0.00529101" stop-color="#F4B90C"/>
<stop offset="1" stop-color="#F36717"/>
</linearGradient>
<linearGradient id="paint1_linear_42_6728" x1="61.8667" y1="17.472" x2="88.3459" y2="17.472" gradientUnits="userSpaceOnUse">
<stop stop-color="#F4B90C"/>
<stop offset="0.00529101" stop-color="#F4B90C"/>
<stop offset="1" stop-color="#F36717"/>
</linearGradient>
<linearGradient id="paint2_linear_42_6728" x1="31.9707" y1="17.472" x2="53.0402" y2="17.472" gradientUnits="userSpaceOnUse">
<stop stop-color="#F4B90C"/>
<stop offset="0.00529101" stop-color="#F4B90C"/>
<stop offset="1" stop-color="#F36717"/>
</linearGradient>
<linearGradient id="paint3_linear_42_6728" x1="14.1759" y1="17.472" x2="29.5694" y2="17.472" gradientUnits="userSpaceOnUse">
<stop stop-color="#F4B90C"/>
<stop offset="0.00529101" stop-color="#F4B90C"/>
<stop offset="1" stop-color="#F36717"/>
</linearGradient>
</defs>
</svg>
