<svg width="13" height="19" viewBox="0 0 13 19" fill="none" xmlns="http://www.w3.org/2000/svg">
<path d="M6.68548 10.2961C4.60148 10.2961 2.91348 8.60675 2.91348 6.52408C2.91348 4.44008 4.60148 2.75071 6.68548 2.75071C8.76815 2.75071 10.4575 4.44008 10.4575 6.52408C10.4575 8.60675 8.76815 10.2961 6.68548 10.2961ZM12.4041 6.52408C12.4041 3.36541 9.84281 0.805397 6.68548 0.805397C3.52815 0.805397 0.966797 3.36541 0.966797 6.52408C0.966797 9.32408 2.98277 11.6441 5.6401 12.1361V18.0814C5.6401 18.5907 6.05346 19.004 6.56413 19.004H6.80547C7.3148 19.004 7.72949 18.5907 7.72949 18.0814V12.1361C10.3868 11.6441 12.4041 9.32408 12.4041 6.52408Z" fill="#353435"/>
</svg>
